# xmcd
#
# Track frame offsets: 
#        150
#        15823
#        29983
#        48140
#        75539
#        93949
#        109564
#        125122
#        143739
#        158374
#
# Disc length: 2333 seconds
#
# Revision: 1
# Processed by: cddbd v1.5.2PL0 Copyright (c) Steve Scherf et al.
# Submitted via: ExactAudioCopy v1.0b3
#
DISCID=6d091b0a
DTITLE=Gloria - Gloria
DYEAR=2013
DGENRE=Pop
TTITLE0=Warten
TTITLE1=Gute Nacht, bis morgen
TTITLE2=Zu Vage
TTITLE3=Eigenes Berlin
TTITLE4=Regen
TTITLE5=Heute du
TTITLE6=Wie sehr wir leuchten
TTITLE7=Solange du mich laesst
TTITLE8=Endlich kombinieren
TTITLE9=Die Zeit ist um
EXTD=
EXTT0=
EXTT1=
EXTT2=
EXTT3=
EXTT4=
EXTT5=
EXTT6=
EXTT7=
EXTT8=
EXTT9=
PLAYORDER=
